<?xml version="1.0" standalone="yes"?>
<svg xmlns="http://www.w3.org/2000/svg" width="513" height="304">
<path style="fill:#a4d9ff; stroke:none;" d="M13 0L19 6L13 0z"/>
<path style="fill:#1a94fe; stroke:none;" d="M14 0C22.9909 14.1116 44.7568 22.5856 60 27.6667C97.4439 40.1479 138.814 41.2724 174 60.25C216.917 83.3972 236.716 134.478 267.222 170C291.964 198.809 323.913 215.172 361 221.611C399.663 228.323 439.02 220.755 477 213.194C486.006 211.402 495.031 209.584 504 207.611C507.553 206.83 512.166 206.892 513 203C449.831 215.25 381.928 235.123 320 206.691C261.84 179.99 242.71 117.036 198.999 75.0394C162.134 39.6203 110.41 42.365 65 26.6559C54.2499 22.937 43.5841 18.8891 34 12.6551C27.7547 8.59277 21.4415 1.14746 14 0z"/>
<path style="fill:#4f65f7; stroke:none;" d="M18 0C30.479 17.3477 58.0401 25.9914 78 30.4244C114.278 38.4816 154.994 43.0192 186 65.0394C233.098 98.488 249.019 161.575 297 194.254C345.63 227.374 406.709 224.789 462 213.8C474.364 211.343 486.658 208.558 499 206.003C502.536 205.271 510.553 205.223 512.397 201.567C514.498 197.398 513 189.588 513 185L513 145L513 0L18 0z"/>
<path style="fill:#67bfff; stroke:none;" d="M20 6L21 7L20 6M21 7L22 8L21 7z"/>
<path style="fill:#a4d9ff; stroke:none;" d="M22 8L23 9L22 8M23 9L24 10L23 9z"/>
<path style="fill:#67bfff; stroke:none;" d="M25 10L26 11L25 10M26 11L27 12L26 11z"/>
<path style="fill:#a4d9ff; stroke:none;" d="M27 12L28 13L27 12z"/>
<path style="fill:#67bfff; stroke:none;" d="M28 12L29 13L28 12M29 13L30 14L29 13z"/>
<path style="fill:#a4d9ff; stroke:none;" d="M30 14L31 15L30 14z"/>
<path style="fill:#67bfff; stroke:none;" d="M31 14L32 15L31 14M32 15L33 16L32 15z"/>
<path style="fill:#a4d9ff; stroke:none;" d="M33 16L34 17L33 16z"/>
<path style="fill:#67bfff; stroke:none;" d="M34 16L35 17L34 16z"/>
<path style="fill:#a4d9ff; stroke:none;" d="M35 17L36 18L35 17z"/>
<path style="fill:#67bfff; stroke:none;" d="M36 17L37 18L36 17z"/>
<path style="fill:#a4d9ff; stroke:none;" d="M37 18L38 19L37 18z"/>
<path style="fill:#67bfff; stroke:none;" d="M38 18L39 19L38 18z"/>
<path style="fill:#a4d9ff; stroke:none;" d="M39 19L40 20L39 19z"/>
<path style="fill:#67bfff; stroke:none;" d="M40 19L41 20L40 19z"/>
<path style="fill:#a4d9ff; stroke:none;" d="M41 20L42 21L41 20z"/>
<path style="fill:#67bfff; stroke:none;" d="M42 20L43 21L42 20z"/>
<path style="fill:#a4d9ff; stroke:none;" d="M43 21L44 22L43 21z"/>
<path style="fill:#67bfff; stroke:none;" d="M44 21L45 22L44 21z"/>
<path style="fill:#a4d9ff; stroke:none;" d="M45 22L46 23L45 22z"/>
<path style="fill:#67bfff; stroke:none;" d="M46 22L47 23L46 22z"/>
<path style="fill:#a4d9ff; stroke:none;" d="M47 23L48 24L47 23z"/>
<path style="fill:#67bfff; stroke:none;" d="M48 23L49 24L48 23z"/>
<path style="fill:#a4d9ff; stroke:none;" d="M49 24L50 25L49 24z"/>
<path style="fill:#67bfff; stroke:none;" d="M50 24L51 25L50 24z"/>
<path style="fill:#a4d9ff; stroke:none;" d="M52 25L53 26L52 25z"/>
<path style="fill:#67bfff; stroke:none;" d="M53 25L54 26L53 25z"/>
<path style="fill:#a4d9ff; stroke:none;" d="M55 26L56 27L55 26z"/>
<path style="fill:#67bfff; stroke:none;" d="M56 26L57 27L56 26z"/>
<path style="fill:#a4d9ff; stroke:none;" d="M58 27L59 28L58 27z"/>
<path style="fill:#67bfff; stroke:none;" d="M59 27L60 28L59 27z"/>
<path style="fill:#a4d9ff; stroke:none;" d="M61 28L62 29L61 28z"/>
<path style="fill:#67bfff; stroke:none;" d="M62 28L63 29L62 28z"/>
<path style="fill:#a4d9ff; stroke:none;" d="M64 29L65 30L64 29z"/>
<path style="fill:#67bfff; stroke:none;" d="M65 29L66 30L65 29M67.6667 30.3333L68.3333 30.6667L67.6667 30.3333z"/>
<path style="fill:#a4d9ff; stroke:none;" d="M70 31L71 32L70 31z"/>
<path style="fill:#67bfff; stroke:none;" d="M71 31L72 32L71 31z"/>
<path style="fill:#a4d9ff; stroke:none;" d="M74 32L75 33L74 32z"/>
<path style="fill:#67bfff; stroke:none;" d="M75 32L76 33L75 32z"/>
<path style="fill:#a4d9ff; stroke:none;" d="M78 33L79 34L78 33z"/>
<path style="fill:#67bfff; stroke:none;" d="M79 33L80 34L79 33z"/>
<path style="fill:#a4d9ff; stroke:none;" d="M82 34L83 35L82 34z"/>
<path style="fill:#67bfff; stroke:none;" d="M83 34L84 35L83 34z"/>
<path style="fill:#a4d9ff; stroke:none;" d="M86 35L87 36L86 35z"/>
<path style="fill:#67bfff; stroke:none;" d="M87.6667 35.3333L88.3333 35.6667L87.6667 35.3333z"/>
<path style="fill:#a4d9ff; stroke:none;" d="M90.6667 36.3333L91.3333 36.6667L90.6667 36.3333z"/>
<path style="fill:#67bfff; stroke:none;" d="M92 36L93 37L92 36z"/>
<path style="fill:#a4d9ff; stroke:none;" d="M95 37L96 38L95 37z"/>
<path style="fill:#67bfff; stroke:none;" d="M96.6667 37.3333L97.3333 37.6667L96.6667 37.3333z"/>
<path style="fill:#a4d9ff; stroke:none;" d="M100 38L101 39L100 38z"/>
<path style="fill:#67bfff; stroke:none;" d="M101.667 38.3333L102.333 38.6667L101.667 38.3333z"/>
<path style="fill:#a4d9ff; stroke:none;" d="M105 39L106 40L105 39z"/>
<path style="fill:#67bfff; stroke:none;" d="M106.667 39.3333L107.333 39.6667L106.667 39.3333z"/>
<path style="fill:#a4d9ff; stroke:none;" d="M109.667 40.3333L110.333 40.6667L109.667 40.3333z"/>
<path style="fill:#67bfff; stroke:none;" d="M111.667 40.3333L112.333 40.6667L111.667 40.3333z"/>
<path style="fill:#a4d9ff; stroke:none;" d="M114.667 41.3333L115.333 41.6667L114.667 41.3333z"/>
<path style="fill:#67bfff; stroke:none;" d="M116 41L117 42L116 41z"/>
<path style="fill:#a4d9ff; stroke:none;" d="M119 42L120 43L119 42z"/>
<path style="fill:#67bfff; stroke:none;" d="M120.667 42.3333L121.333 42.6667L120.667 42.3333z"/>
<path style="fill:#a4d9ff; stroke:none;" d="M124 43L125 44L124 43z"/>
<path style="fill:#67bfff; stroke:none;" d="M125.667 43.3333L126.333 43.6667L125.667 43.3333z"/>
<path style="fill:#a4d9ff; stroke:none;" d="M128 44L129 45L128 44z"/>
<path style="fill:#67bfff; stroke:none;" d="M129.667 44.3333L130.333 44.6667L129.667 44.3333z"/>
<path style="fill:#a4d9ff; stroke:none;" d="M132 45L133 46L132 45z"/>
<path style="fill:#67bfff; stroke:none;" d="M133.667 45.3333L134.333 45.6667L133.667 45.3333z"/>
<path style="fill:#a4d9ff; stroke:none;" d="M136 46L137 47L136 46z"/>
<path style="fill:#67bfff; stroke:none;" d="M137 46L138 47L137 46z"/>
<path style="fill:#a4d9ff; stroke:none;" d="M140 47L141 48L140 47z"/>
<path style="fill:#67bfff; stroke:none;" d="M141 47L142 48L141 47z"/>
<path style="fill:#a4d9ff; stroke:none;" d="M144 48L145 49L144 48z"/>
<path style="fill:#67bfff; stroke:none;" d="M145 48L146 49L145 48z"/>
<path style="fill:#a4d9ff; stroke:none;" d="M147 49L148 50L147 49z"/>
<path style="fill:#67bfff; stroke:none;" d="M148 49L149 50L148 49z"/>
<path style="fill:#a4d9ff; stroke:none;" d="M150 50L151 51L150 50z"/>
<path style="fill:#67bfff; stroke:none;" d="M151 50L152 51L151 50M153 51L154 52L153 51z"/>
<path style="fill:#a4d9ff; stroke:none;" d="M155 52L156 53L155 52z"/>
<path style="fill:#67bfff; stroke:none;" d="M156 52L157 53L156 52z"/>
<path style="fill:#a4d9ff; stroke:none;" d="M158 53L159 54L158 53z"/>
<path style="fill:#67bfff; stroke:none;" d="M159 53L160 54L159 53z"/>
<path style="fill:#a4d9ff; stroke:none;" d="M161 54L162 55L161 54z"/>
<path style="fill:#67bfff; stroke:none;" d="M162 54L163 55L162 54M164 55L165 56L164 55M166 56L167 57L166 56z"/>
<path style="fill:#a4d9ff; stroke:none;" d="M168 57L169 58L168 57M170 58L171 59L170 58M172 59L173 60L172 59z"/>
<path style="fill:#67bfff; stroke:none;" d="M174 60L175 61L174 60z"/>
<path style="fill:#a4d9ff; stroke:none;" d="M175 61L176 62L175 61z"/>
<path style="fill:#67bfff; stroke:none;" d="M176 61L177 62L176 61z"/>
<path style="fill:#a4d9ff; stroke:none;" d="M177 62L178 63L177 62z"/>
<path style="fill:#67bfff; stroke:none;" d="M179 63L180 64L179 63z"/>
<path style="fill:#a4d9ff; stroke:none;" d="M180 64L181 65L180 64z"/>
<path style="fill:#67bfff; stroke:none;" d="M182 65L183 66L182 65z"/>
<path style="fill:#a4d9ff; stroke:none;" d="M183 66L184 67L183 66z"/>
<path style="fill:#67bfff; stroke:none;" d="M185 67L186 68L185 67z"/>
<path style="fill:#a4d9ff; stroke:none;" d="M186 68L187 69L186 68M187 69L188 70L187 69z"/>
<path style="fill:#67bfff; stroke:none;" d="M189 70L190 71L189 70M190 71L191 72L190 71M191 72L192 73L191 72z"/>
<path style="fill:#a4d9ff; stroke:none;" d="M192 73L193 74L192 73M193 74L194 75L193 74M194 75L195 76L194 75M195 76L196 77L195 76M196 77L197 78L196 77M197 78L198 79L197 78M198 79L199 80L198 79M199 80L200 81L199 80M200 81L201 82L200 81M201 82L202 83L201 82M202 83L203 84L202 83M203 84L204 85L203 84M204 85L205 86L204 85M205 86L206 87L205 86z"/>
<path style="fill:#67bfff; stroke:none;" d="M206 87L207 88L206 87M207 88L208 89L207 88M208 89L209 90L208 89z"/>
<path style="fill:#a4d9ff; stroke:none;" d="M209 91L210 92L209 91M210 92L211 93L210 92z"/>
<path style="fill:#67bfff; stroke:none;" d="M211 93L212 94L211 93M212 94L213 95L212 94z"/>
<path style="fill:#a4d9ff; stroke:none;" d="M213 96L214 97L213 96M214 97L215 98L214 97z"/>
<path style="fill:#67bfff; stroke:none;" d="M215 98L216 99L215 98M216 99L217 100L216 99z"/>
<path style="fill:#a4d9ff; stroke:none;" d="M217 101L218 102L217 101M218 102L219 103L218 102z"/>
<path style="fill:#67bfff; stroke:none;" d="M219 103L220 104L219 103M220 104L221 105L220 104z"/>
<path style="fill:#a4d9ff; stroke:none;" d="M220 105L221 106L220 105M221 106L222 107L221 106z"/>
<path style="fill:#67bfff; stroke:none;" d="M222 107L223 108L222 107z"/>
<path style="fill:#a4d9ff; stroke:none;" d="M223 109L224 110L223 109z"/>
<path style="fill:#67bfff; stroke:none;" d="M224 110L225 111L224 110M225 111L226 112L225 111z"/>
<path style="fill:#a4d9ff; stroke:none;" d="M225 112L226 113L225 112M226 113L227 114L226 113z"/>
<path style="fill:#67bfff; stroke:none;" d="M227 114L228 115L227 114z"/>
<path style="fill:#a4d9ff; stroke:none;" d="M228 116L229 117L228 116z"/>
<path style="fill:#67bfff; stroke:none;" d="M229 117L230 118L229 117M230 118L231 119L230 118z"/>
<path style="fill:#a4d9ff; stroke:none;" d="M230 119L231 120L230 119z"/>
<path style="fill:#67bfff; stroke:none;" d="M231 120L232 121L231 120M232 121L233 122L232 121z"/>
<path style="fill:#a4d9ff; stroke:none;" d="M233 123L234 124L233 123z"/>
<path style="fill:#67bfff; stroke:none;" d="M234 124L235 125L234 124z"/>
<path style="fill:#a4d9ff; stroke:none;" d="M235 126L236 127L235 126z"/>
<path style="fill:#67bfff; stroke:none;" d="M236 127L237 128L236 127z"/>
<path style="fill:#a4d9ff; stroke:none;" d="M237 129L238 130L237 129z"/>
<path style="fill:#67bfff; stroke:none;" d="M238 130L239 131L238 130z"/>
<path style="fill:#a4d9ff; stroke:none;" d="M239 132L240 133L239 132z"/>
<path style="fill:#67bfff; stroke:none;" d="M240 133L241 134L240 133M241 134L242 135L241 134z"/>
<path style="fill:#a4d9ff; stroke:none;" d="M241 135L242 136L241 135z"/>
<path style="fill:#67bfff; stroke:none;" d="M242 136L243 137L242 136M243 137L244 138L243 137z"/>
<path style="fill:#a4d9ff; stroke:none;" d="M244 139L245 140L244 139z"/>
<path style="fill:#67bfff; stroke:none;" d="M245 140L246 141L245 140z"/>
<path style="fill:#a4d9ff; stroke:none;" d="M246 142L247 143L246 142z"/>
<path style="fill:#67bfff; stroke:none;" d="M247 143L248 144L247 143z"/>
<path style="fill:#a4d9ff; stroke:none;" d="M248 145L249 146L248 145z"/>
<path style="fill:#67bfff; stroke:none;" d="M249 146L250 147L249 146M250 147L251 148L250 147z"/>
<path style="fill:#a4d9ff; stroke:none;" d="M250 148L251 149L250 148z"/>
<path style="fill:#67bfff; stroke:none;" d="M251 149L252 150L251 149M252 150L253 151L252 150z"/>
<path style="fill:#a4d9ff; stroke:none;" d="M252 151L253 152L252 151M253 152L254 153L253 152z"/>
<path style="fill:#67bfff; stroke:none;" d="M254 153L255 154L254 153z"/>
<path style="fill:#a4d9ff; stroke:none;" d="M255 155L256 156L255 155M256 156L257 157L256 156z"/>
<path style="fill:#67bfff; stroke:none;" d="M257 157L258 158L257 157M258 158L259 159L258 158z"/>
<path style="fill:#a4d9ff; stroke:none;" d="M259 160L260 161L259 160z"/>
<path style="fill:#67bfff; stroke:none;" d="M260 161L261 162L260 161M261 162L262 163L261 162z"/>
<path style="fill:#a4d9ff; stroke:none;" d="M262 164L263 165L262 164M263 165L264 166L263 165z"/>
<path style="fill:#67bfff; stroke:none;" d="M264 166L265 167L264 166M265 167L266 168L265 167z"/>
<path style="fill:#a4d9ff; stroke:none;" d="M265 168L266 169L265 168M266 169L267 170L266 169M267 170L268 171L267 170M268 171L269 172L268 171z"/>
<path style="fill:#67bfff; stroke:none;" d="M269 172L270 173L269 172M270 173L271 174L270 173M271 174L272 175L271 174M272 175L273 176L272 175M273 176L274 177L273 176M274 177L275 178L274 177M275 178L276 179L275 178z"/>
<path style="fill:#a4d9ff; stroke:none;" d="M277 181L278 182L277 181M278 182L279 183L278 182M279 183L280 184L279 183z"/>
<path style="fill:#67bfff; stroke:none;" d="M281 184L282 185L281 184M282 185L283 186L282 185M283 186L284 187L283 186z"/>
<path style="fill:#a4d9ff; stroke:none;" d="M284 187L285 188L284 187M285 188L286 189L285 188M286 189L287 190L286 189z"/>
<path style="fill:#67bfff; stroke:none;" d="M288 190L289 191L288 190M289 191L290 192L289 191z"/>
<path style="fill:#a4d9ff; stroke:none;" d="M290 192L291 193L290 192M291 193L292 194L291 193M292 194L293 195L292 194z"/>
<path style="fill:#67bfff; stroke:none;" d="M294 195L295 196L294 195z"/>
<path style="fill:#a4d9ff; stroke:none;" d="M295 196L296 197L295 196z"/>
<path style="fill:#67bfff; stroke:none;" d="M297 197L298 198L297 197z"/>
<path style="fill:#a4d9ff; stroke:none;" d="M298 198L299 199L298 198z"/>
<path style="fill:#67bfff; stroke:none;" d="M299 198L300 199L299 198z"/>
<path style="fill:#a4d9ff; stroke:none;" d="M300 199L301 200L300 199z"/>
<path style="fill:#67bfff; stroke:none;" d="M302 200L303 201L302 200z"/>
<path style="fill:#a4d9ff; stroke:none;" d="M303 201L304 202L303 201z"/>
<path style="fill:#67bfff; stroke:none;" d="M305 202L306 203L305 202z"/>
<path style="fill:#a4d9ff; stroke:none;" d="M306 203L307 204L306 203z"/>
<path style="fill:#67bfff; stroke:none;" d="M307 203L308 204L307 203M308 204L309 205L308 204M310 205L311 206L310 205M312 206L313 207L312 206M508.667 206.333L509.333 206.667L508.667 206.333z"/>
<path style="fill:#a4d9ff; stroke:none;" d="M510 206L511 207L510 206M314 207L315 208L314 207z"/>
<path style="fill:#67bfff; stroke:none;" d="M504 207L505 208L504 207z"/>
<path style="fill:#a4d9ff; stroke:none;" d="M505.667 207.333L506.333 207.667L505.667 207.333M316 208L317 209L316 208z"/>
<path style="fill:#67bfff; stroke:none;" d="M317 208L318 209L317 208M499.667 208.333L500.333 208.667L499.667 208.333z"/>
<path style="fill:#a4d9ff; stroke:none;" d="M501 208L502 209L501 208M318 209L319 210L318 209z"/>
<path style="fill:#67bfff; stroke:none;" d="M319 209L320 210L319 209M494.667 209.333L495.333 209.667L494.667 209.333z"/>
<path style="fill:#a4d9ff; stroke:none;" d="M496 209L497 210L496 209M320 210L321 211L320 210z"/>
<path style="fill:#67bfff; stroke:none;" d="M321 210L322 211L321 210M489.667 210.333L490.333 210.667L489.667 210.333z"/>
<path style="fill:#a4d9ff; stroke:none;" d="M491 210L492 211L491 210z"/>
<path style="fill:#67bfff; stroke:none;" d="M323 211L324 212L323 211M485 211L486 212L485 211z"/>
<path style="fill:#a4d9ff; stroke:none;" d="M486.667 211.333L487.333 211.667L486.667 211.333M325 212L326 213L325 212z"/>
<path style="fill:#67bfff; stroke:none;" d="M480.667 212.333L481.333 212.667L480.667 212.333z"/>
<path style="fill:#a4d9ff; stroke:none;" d="M482 212L483 213L482 212M327 213L328 214L327 213z"/>
<path style="fill:#67bfff; stroke:none;" d="M328 213L329 214L328 213M475.667 213.333L476.333 213.667L475.667 213.333z"/>
<path style="fill:#a4d9ff; stroke:none;" d="M477 213L478 214L477 213M330 214L331 215L330 214z"/>
<path style="fill:#67bfff; stroke:none;" d="M331.667 214.333L332.333 214.667L331.667 214.333M470.667 214.333L471.333 214.667L470.667 214.333z"/>
<path style="fill:#a4d9ff; stroke:none;" d="M472 214L473 215L472 214M334 215L335 216L334 215z"/>
<path style="fill:#67bfff; stroke:none;" d="M335 215L336 216L335 215M465.667 215.333L466.333 215.667L465.667 215.333z"/>
<path style="fill:#a4d9ff; stroke:none;" d="M467 215L468 216L467 215M337 216L338 217L337 216z"/>
<path style="fill:#67bfff; stroke:none;" d="M338 216L339 217L338 216M460.667 216.333L461.333 216.667L460.667 216.333z"/>
<path style="fill:#a4d9ff; stroke:none;" d="M462 216L463 217L462 216M340 217L341 218L340 217z"/>
<path style="fill:#67bfff; stroke:none;" d="M341 217L342 218L341 217M455.667 217.333L456.333 217.667L455.667 217.333z"/>
<path style="fill:#a4d9ff; stroke:none;" d="M457.667 217.333L458.333 217.667L457.667 217.333M343 218L344 219L343 218z"/>
<path style="fill:#67bfff; stroke:none;" d="M344 218L345 219L344 218M449.667 218.333L450.333 218.667L449.667 218.333z"/>
<path style="fill:#a4d9ff; stroke:none;" d="M451.667 218.333L452.333 218.667L451.667 218.333M347.667 219.333L348.333 219.667L347.667 219.333z"/>
<path style="fill:#67bfff; stroke:none;" d="M349.667 219.333L350.333 219.667L349.667 219.333M443.667 219.333L444.333 219.667L443.667 219.333z"/>
<path style="fill:#a4d9ff; stroke:none;" d="M445.667 219.333L446.333 219.667L445.667 219.333M353 220L354 221L353 220z"/>
<path style="fill:#67bfff; stroke:none;" d="M354.667 220.333L355.333 220.667L354.667 220.333M437.667 220.333L438.333 220.667L437.667 220.333z"/>
<path style="fill:#a4d9ff; stroke:none;" d="M439.667 220.333L440.333 220.667L439.667 220.333M358 221L359 222L358 221z"/>
<path style="fill:#67bfff; stroke:none;" d="M359.667 221.333L360.333 221.667L359.667 221.333M430 221L430 222L433 222L430 221z"/>
<path style="fill:#a4d9ff; stroke:none;" d="M433.667 221.333L434.333 221.667L433.667 221.333M363.667 222.333L364.333 222.667L363.667 222.333z"/>
<path style="fill:#67bfff; stroke:none;" d="M365 222L365 223L369 223L365 222M420 222L420 223L423 223L420 222z"/>
<path style="fill:#a4d9ff; stroke:none;" d="M423 222L423 223L427 223L423 222M373 223L373 224L377 224L373 223z"/>
<path style="fill:#67bfff; stroke:none;" d="M377 223L377 224L381 224L377 223M409 223L409 224L413 224L409 223z"/>
<path style="fill:#a4d9ff; stroke:none;" d="M413 223L413 224L416 224L413 223M386.667 224.333L387.333 224.667L386.667 224.333z"/>
</svg>
